HIERARCHY
ROOT hip
{
  OFFSET 0 0 0
  CHANNELS 6 Xposition Yposition Zposition Zrotation Yrotation Xrotation
  JOINT abdomen
  {
    OFFSET 0 20.6881 -0.73152
    CHANNELS 3 Zrotation Xrotation Yrotation
    JOINT chest
    {
      OFFSET 0 11.7043 -0.48768
      CHANNELS 3 Zrotation Xrotation Yrotation
      JOINT neck
      {
        OFFSET 0 22.1894 -2.19456
        CHANNELS 3 Zrotation Xrotation Yrotation
        JOINT head
        {
          OFFSET -0.24384 7.07133 1.2192
          CHANNELS 3 Zrotation Xrotation Yrotation
          JOINT leftEye
          {
            OFFSET 4.14528 8.04674 8.04672
            CHANNELS 3 Zrotation Xrotation Yrotation
            End Site
            {
              OFFSET 1 0 0
            }
          }
          JOINT rightEye
          {
            OFFSET -3.6576 8.04674 8.04672
            CHANNELS 3 Zrotation Xrotation Yrotation
            End Site
            {
              OFFSET 1 0 0
            }
          }
        }
      }
      JOINT rCollar
      {
        OFFSET -2.68224 19.2634 -4.8768
        CHANNELS 3 Zrotation Xrotation Yrotation
        JOINT rShldr
        {
          OFFSET -8.77824 -1.95073 1.46304
          CHANNELS 3 Zrotation Xrotation Yrotation
          JOINT rForeArm
          {
            OFFSET -28.1742 -1.7115 0.48768
            CHANNELS 3 Zrotation Xrotation Yrotation
            JOINT rHand
            {
              OFFSET -22.5879 0.773209 7.07136
              CHANNELS 3 Zrotation Xrotation Yrotation
              JOINT rThumb1
              {
                OFFSET -1.2192 -0.487915 3.41376
                CHANNELS 3 Zrotation Xrotation Yrotation
                JOINT rThumb2
                {
                  OFFSET -3.37035 -0.52449 3.41376
                  CHANNELS 3 Zrotation Xrotation Yrotation
                  End Site
                  {
                    OFFSET -1.78271 -1.18214 1.43049
                  }
                }
              }
              JOINT rIndex1
              {
                OFFSET -7.75947 0.938293 5.60832
                CHANNELS 3 Zrotation Xrotation Yrotation
                JOINT rIndex2
                {
                  OFFSET -2.54057 -0.884171 1.56538
                  CHANNELS 3 Zrotation Xrotation Yrotation
                  End Site
                  {
                    OFFSET -1.62519 -0.234802 1.16502
                  }
                }
              }
              JOINT rMid1
              {
                OFFSET -8.24714 1.18213 3.41376
                CHANNELS 3 Zrotation Xrotation Yrotation
                JOINT rMid2
                {
                  OFFSET -3.10165 -0.590103 1.0647
                  CHANNELS 3 Zrotation Xrotation Yrotation
                  End Site
                  {
                    OFFSET -2.48547 -0.328903 0.83742
                  }
                }
              }
              JOINT rRing1
              {
                OFFSET -8.82822 0.546677 1.51678
                CHANNELS 3 Zrotation Xrotation Yrotation
                JOINT rRing2
                {
                  OFFSET -2.60934 -0.819778 -0.0198488
                  CHANNELS 3 Zrotation Xrotation Yrotation
                  End Site
                  {
                    OFFSET -2.33842 -0.294052 0.168128
                  }
                }
              }
              JOINT rPinky1
              {
                OFFSET -8.27202 -0.0477905 -0.4584
                CHANNELS 3 Zrotation Xrotation Yrotation
                JOINT rPinky2
                {
                  OFFSET -1.82734 -0.647385 -0.700984
                  CHANNELS 3 Zrotation Xrotation Yrotation
                  End Site
                  {
                    OFFSET -1.69225 -0.51767 -0.607171
                  }
                }
              }
            }
          }
        }
      }
      JOINT lCollar
      {
        OFFSET 2.68224 19.2634 -4.8768
        CHANNELS 3 Zrotation Xrotation Yrotation
        JOINT lShldr
        {
          OFFSET 8.77824 -1.95073 1.46304
          CHANNELS 3 Zrotation Xrotation Yrotation
          JOINT lForeArm
          {
            OFFSET 28.1742 -1.7115 0.48768
            CHANNELS 3 Zrotation Xrotation Yrotation
            JOINT lHand
            {
              OFFSET 22.5879 0.773209 7.07136
              CHANNELS 3 Zrotation Xrotation Yrotation
              JOINT lThumb1
              {
                OFFSET 1.2192 -0.487915 3.41376
                CHANNELS 3 Zrotation Xrotation Yrotation
                JOINT lThumb2
                {
                  OFFSET 3.37035 -0.52449 3.41376
                  CHANNELS 3 Zrotation Xrotation Yrotation
                  End Site
                  {
                    OFFSET 1.78271 -1.18214 1.43049
                  }
                }
              }
              JOINT lIndex1
              {
                OFFSET 7.75947 0.938293 5.60832
                CHANNELS 3 Zrotation Xrotation Yrotation
                JOINT lIndex2
                {
                  OFFSET 2.54057 -0.884171 1.56538
                  CHANNELS 3 Zrotation Xrotation Yrotation
                  End Site
                  {
                    OFFSET 1.62519 -0.234802 1.16502
                  }
                }
              }
              JOINT lMid1
              {
                OFFSET 8.24714 1.18213 3.41376
                CHANNELS 3 Zrotation Xrotation Yrotation
                JOINT lMid2
                {
                  OFFSET 3.10165 -0.590103 1.0647
                  CHANNELS 3 Zrotation Xrotation Yrotation
                  End Site
                  {
                    OFFSET 2.48547 -0.328903 0.83742
                  }
                }
              }
              JOINT lRing1
              {
                OFFSET 8.82822 0.546677 1.51678
                CHANNELS 3 Zrotation Xrotation Yrotation
                JOINT lRing2
                {
                  OFFSET 2.60934 -0.819778 -0.0198488
                  CHANNELS 3 Zrotation Xrotation Yrotation
                  End Site
                  {
                    OFFSET 2.33842 -0.294052 0.168128
                  }
                }
              }
              JOINT lPinky1
              {
                OFFSET 8.27202 -0.0477905 -0.4584
                CHANNELS 3 Zrotation Xrotation Yrotation
                JOINT lPinky2
                {
                  OFFSET 1.82734 -0.647385 -0.700984
                  CHANNELS 3 Zrotation Xrotation Yrotation
                  End Site
                  {
                    OFFSET 1.69225 -0.51767 -0.607171
                  }
                }
              }
            }
          }
        }
      }
    }
  }
  JOINT rButtock
  {
    OFFSET -8.77824 4.35084 1.2192
    CHANNELS 3 Zrotation Xrotation Yrotation
    JOINT rThigh
    {
      OFFSET 0 -1.70687 -2.19456
      CHANNELS 3 Zrotation Xrotation Yrotation
      JOINT rShin
      {
        OFFSET 0 -36.8199 0.73152
        CHANNELS 3 Zrotation Xrotation Yrotation
        JOINT rFoot
        {
          OFFSET 0.73152 -45.1104 -5.12064
          CHANNELS 3 Zrotation Xrotation Yrotation
          End Site
          {
            OFFSET -1.1221 -3.69964 12.103
          }
        }
      }
    }
  }
  JOINT lButtock
  {
    OFFSET 8.77824 4.35084 1.2192
    CHANNELS 3 Zrotation Xrotation Yrotation
    JOINT lThigh
    {
      OFFSET 0 -1.70687 -2.19456
      CHANNELS 3 Zrotation Xrotation Yrotation
      JOINT lShin
      {
        OFFSET 0 -36.8199 0.73152
        CHANNELS 3 Zrotation Xrotation Yrotation
        JOINT lFoot
        {
          OFFSET -0.73152 -45.1104 -5.12064
          CHANNELS 3 Zrotation Xrotation Yrotation
          End Site
          {
            OFFSET 1.1221 -3.69964 12.103
          }
        }
      }
    }
  }
}
MOTION
Frames:	4
Frame Time:	0.00833333
99.0444 41.1003 60.7445 0.0 0.0 0.0 -0.735006 -0.00369241 -0.0206949 -0.202648 -0.00499295 -0.0351113 4.42171e-15 1.59028e-15 -9.93923e-17 1.33683e-14 9.54166e-15 -3.40108e-16 -0.0 0.0 0.0 -0.0 0.0 0.0 2.38421e-15 6.7944e-18 4.96962e-17 4.76872e-14 3.85145e-16 -1.98785e-16 8.03786e-13 -2.29398e-13 -4.13472e-14 9.13155e-12 2.78746e-13 -2.38542e-13 2.15497e-11 1.06231e-13 -5.91583e-13 3.72018e-11 1.81292e-13 -1.02255e-12 2.15514e-11 1.06549e-13 -5.91583e-13 7.73091 5.47488 0.417314 2.15485e-11 1.05356e-13 -5.88403e-13 2.90554 0.965183 0.102902 2.15511e-11 1.06151e-13 -5.93969e-13 10.2786 0.731801 0.0259123 2.15417e-11 1.10524e-13 -5.91583e-13 2.22167 -0.733487 -0.20892 2.18799e-15 7.5709e-18 -1.49089e-16 4.49687e-14 7.45443e-17 -2.18663e-15 7.95884e-13 2.453e-13 -3.49861e-14 9.1471e-12 -2.06662e-13 -2.38542e-13 2.15686e-11 8.52847e-14 -5.91583e-13 3.7257e-11 1.49486e-13 -1.0138e-12 2.15638e-11 8.3092e-14 -5.91583e-13 -7.73091 5.47488 -0.417314 2.157e-11 8.48811e-14 -5.88403e-13 -2.90554 0.965183 -0.102902 2.15623e-11 8.51792e-14 -5.89198e-13 -10.2786 0.731801 -0.0259123 2.15761e-11 8.78628e-14 -5.97944e-13 -2.22167 -0.733487 0.20892 -2.03217e-16 0.0 -3.88251e-19 -0.0347333 -2.13134 -0.0183594 -0.00889726 -1.69197 -0.0750433 -0.522008 3.82299 0.138181 2.03217e-16 0.0 3.88251e-19 -1.08425 -4.91179 0.0910585 0.00129705 3.34434 -0.00260496 0.532098 1.56725 -0.0929578
77.0827 47.6622 55.4241 133.917 -85.8503 -157.121 0.0104348 11.5316 1.80502 0.307789 0.296449 0.277986 -1.25716 -1.68188 1.78624 -1.30882 -1.70002 3.89859 -0.0 0.0 0.0 -0.0 0.0 0.0 1.28319e-15 -4.20719e-13 5.45823e-14 18.709 10.3682 7.77705 -11.5054 -8.41754 13.186 0.00503491 1.6077 0.225645 1.709e-10 -1.46963e-10 -3.53702e-10 2.94142e-10 -2.54063e-10 -6.12786e-10 1.70903e-10 -1.46965e-10 -3.53705e-10 7.73091 5.47488 0.417314 1.709e-10 -1.46967e-10 -3.53697e-10 2.90554 0.965183 0.102902 1.70903e-10 -1.46968e-10 -3.53702e-10 10.2786 0.731801 0.0259123 1.7089e-10 -1.46964e-10 -3.53698e-10 2.22167 -0.733487 -0.20892 1.13178e-15 -4.20715e-13 5.43529e-14 -20.6948 14.4847 -9.09348 10.5516 -7.42218 -12.6508 -0.0421722 4.55793 -0.633276 -3.39203e-10 -1.51668e-10 -3.71437e-12 -5.86529e-10 -2.6319e-10 -2.01749e-12 -3.39208e-10 -1.51671e-10 -3.71066e-12 -7.73091 5.47488 -0.417314 -3.39202e-10 -1.5167e-10 -3.71009e-12 -2.90554 0.965183 -0.102902 -3.39208e-10 -1.51669e-10 -3.71028e-12 -10.2786 0.731801 -0.0259123 -3.39195e-10 -1.51667e-10 -3.71586e-12 -2.22167 -0.733487 0.20892 -2.03217e-16 0.0 -3.88251e-19 -3.8213 -14.2666 -1.99213 0.40531 17.1192 0.310182 0.135426 3.43713 0.0225477 2.03217e-16 0.0 3.88251e-19 2.65534 -15.7575 3.95165 -0.420016 21.9717 -0.36953 -0.0652635 0.511099 -2.102
77.0949 47.6651 55.4109 135.196 -85.9365 -158.381 -0.0604124 23.6836 3.99111 0.845008 0.617305 0.607891 -2.49946 -3.45364 3.67671 -2.40153 -3.48068 8.03762 -0.0 0.0 0.0 -0.0 0.0 0.0 -1.4828e-15 -9.13087e-13 1.15503e-13 35.2841 20.6788 16.8432 -19.4762 -15.8128 27.9746 -0.00364749 3.34492 0.47009 3.42841e-10 -3.10915e-10 -7.42799e-10 5.9001e-10 -5.37501e-10 -1.28693e-09 3.42846e-10 -3.1092e-10 -7.42805e-10 7.73091 5.47488 0.417314 3.42843e-10 -3.10923e-10 -7.42792e-10 2.90554 0.965183 0.102902 3.42846e-10 -3.10925e-10 -7.42796e-10 10.2786 0.731801 0.0259123 3.4283e-10 -3.10921e-10 -7.4279e-10 2.22167 -0.733487 -0.20892 -1.58609e-15 -9.13079e-13 1.15239e-13 -37.0524 28.523 -20.7184 18.1751 -14.0529 -26.6624 0.0241506 9.37568 -1.31637 -7.2552e-10 -3.14842e-10 -6.87497e-12 -1.25452e-09 -5.4637e-10 -2.76728e-12 -7.25525e-10 -3.14844e-10 -6.86722e-12 -7.73091 5.47488 -0.417314 -7.25519e-10 -3.14844e-10 -6.8694e-12 -2.90554 0.965183 -0.102902 -7.25523e-10 -3.14843e-10 -6.8691e-12 -10.2786 0.731801 -0.0259123 -7.25511e-10 -3.1484e-10 -6.87099e-12 -2.22167 -0.733487 0.20892 -2.03217e-16 0.0 -3.88251e-19 -8.83816 -27.0469 -4.44341 0.509295 37.0023 0.862962 0.828827 3.03006 -0.100714 2.03217e-16 0.0 3.88251e-19 8.37142 -27.0356 8.67061 -0.524976 41.6621 -0.940123 -0.777128 -0.600124 -4.21986
77.0972 47.6934 55.3935 137.091 -86.0861 -160.278 -1.09672 34.4468 6.48855 1.31878 0.899231 0.904281 -3.45636 -5.02599 5.37713 -3.23551 -5.00556 11.736 -0.0 0.0 0.0 -0.0 0.0 0.0 -9.18836e-16 -1.26217e-12 1.63648e-13 46.9708 28.6592 26.3805 -23.3553 -19.827 42.1262 -0.0229984 4.8228 0.679074 4.69599e-10 -4.41102e-10 -1.05992e-09 8.08024e-10 -7.6255e-10 -1.83631e-09 4.69606e-10 -4.41109e-10 -1.05993e-09 7.73091 5.47488 0.417314 4.69603e-10 -4.41113e-10 -1.05992e-09 2.90554 0.965183 0.102902 4.69606e-10 -4.41115e-10 -1.05992e-09 10.2786 0.731801 0.0259123 4.69587e-10 -4.41112e-10 -1.05991e-09 2.22167 -0.733487 -0.20892 -9.80618e-16 -1.26216e-12 1.63357e-13 -45.7317 38.4618 -34.6088 22.2334 -17.8836 -39.9073 0.183185 13.667 -1.94902 -1.06075e-09 -4.55176e-10 -9.95993e-12 -1.8341e-09 -7.89868e-10 -4.02487e-12 -1.06075e-09 -4.55179e-10 -9.94883e-12 -7.73091 5.47488 -0.417314 -1.06075e-09 -4.5518e-10 -9.95347e-12 -2.90554 0.965183 -0.102902 -1.06075e-09 -4.55178e-10 -9.95244e-12 -10.2786 0.731801 -0.0259123 -1.06074e-09 -4.55175e-10 -9.95168e-12 -2.22167 -0.733487 0.20892 -2.03217e-16 0.0 -3.88251e-19 -14.4932 -38.3322 -7.34473 0.0334077 54.7289 1.80009 1.44562 2.66536 -0.208451 2.03217e-16 0.0 3.88251e-19 15.4401 -36.7176 14.0574 0.040044 59.2124 -1.99865 -1.48182 -1.59105 -6.12227
